<?xml version="1.0" encoding="UTF-8"?>
<svg xmlns="http://www.w3.org/2000/svg" xmlns:xlink="http://www.w3.org/1999/xlink" width="17px" height="20px" viewBox="0 0 17 19" version="1.1">
<g id="surface1">
<path style=" stroke:none;fill-rule:nonzero;fill:rgb(0%,0%,0%);fill-opacity:1;" d="M 13 3.425781 C 13.476562 2.972656 13.476562 2.246094 13 1.796875 C 12.523438 1.351562 11.757812 1.351562 11.28125 1.796875 L 6.070312 6.726562 L 3.890625 4.667969 C 3.421875 4.21875 2.648438 4.21875 2.171875 4.667969 C 1.699219 5.117188 1.699219 5.84375 2.171875 6.292969 L 5.210938 9.164062 C 5.683594 9.609375 6.453125 9.609375 6.929688 9.164062 Z M 16.640625 8.015625 C 17.117188 7.566406 17.117188 6.839844 16.640625 6.390625 C 16.171875 5.941406 15.398438 5.941406 14.921875 6.390625 L 6.070312 14.761719 L 2.070312 10.984375 C 1.597656 10.535156 0.828125 10.535156 0.351562 10.984375 C -0.121094 11.433594 -0.121094 12.160156 0.351562 12.609375 L 5.210938 17.203125 C 5.683594 17.648438 6.453125 17.648438 6.929688 17.203125 L 16.640625 8.019531 Z M 16.640625 8.015625 "/>
</g>
</svg>
